<svg xmlns="http://www.w3.org/2000/svg" width="31" height="31" viewBox="0 0 31 31">
  <path id="Icon_awesome-google" data-name="Icon awesome-google" d="M30,15.913c0,8.558-5.957,14.649-14.754,14.649A15.124,15.124,0,0,1,0,15.562a15.124,15.124,0,0,1,15.246-15A14.8,14.8,0,0,1,25.468,4.488L21.319,8.413C15.891,3.261,5.8,7.132,5.8,15.562a9.47,9.47,0,0,0,9.449,9.471c6.033,0,8.3-4.258,8.656-6.465H15.246V13.407H29.76A12.944,12.944,0,0,1,30,15.913Z" transform="translate(0.5 -0.061)" stroke="#000" stroke-width="1"/>
</svg>
