<svg xmlns="http://www.w3.org/2000/svg" width="30.682" height="30.682" viewBox="0 0 30.682 30.682">
  <g id="INSTAGRAM" transform="translate(-1.5 -1.5)">
    <path id="Path_1" data-name="Path 1" d="M9.92,3H23.761a6.92,6.92,0,0,1,6.92,6.92V23.761a6.92,6.92,0,0,1-6.92,6.92H9.92A6.92,6.92,0,0,1,3,23.761V9.92A6.92,6.92,0,0,1,9.92,3Z" transform="translate(0 0)" fill="none" stroke="#000" stroke-linecap="round" stroke-linejoin="round" stroke-width="3"/>
    <path id="Path_2" data-name="Path 2" d="M24,17.055A6,6,0,1,1,18.945,12,6,6,0,0,1,24,17.055Z" transform="translate(-1.168 -1.151)" fill="none" stroke="#000" stroke-linecap="round" stroke-linejoin="round" stroke-width="3"/>
    <path id="Path_3" data-name="Path 3" d="M26.25,9.75h0" transform="translate(-1.797 -0.522)" fill="none" stroke="#000" stroke-linecap="round" stroke-linejoin="round" stroke-width="3"/>
  </g>
</svg>
