<svg xmlns="http://www.w3.org/2000/svg" width="38.4" height="30" viewBox="0 0 38.4 30">
  <path id="Youtube" d="M38.648,9.194a5.126,5.126,0,0,0-3.395-3.8c-2.995-.9-15-.9-15-.9s-12.008,0-15,.9a5.126,5.126,0,0,0-3.395,3.8c-.8,3.349-.8,10.336-.8,10.336s0,6.987.8,10.336A5.038,5.038,0,0,0,5.247,33.6c2.995.9,15,.9,15,.9s12.008,0,15-.9a5.038,5.038,0,0,0,3.395-3.736c.8-3.349.8-10.336.8-10.336s0-6.987-.8-10.336ZM16.323,25.874V13.186L26.359,19.53,16.323,25.874Z" transform="translate(-1.05 -4.5)"/>
</svg>
