<?xml version="1.0" ?><!DOCTYPE svg  PUBLIC '-//W3C//DTD SVG 1.1//EN'  'http://www.w3.org/Graphics/SVG/1.1/DTD/svg11.dtd'>
<svg enable-background="new 0 0 512 512" height="512px" id="Blazer" version="1.1" viewBox="0 0 512 512" width="512px" xml:space="preserve" xmlns="http://www.w3.org/2000/svg" xmlns:xlink="http://www.w3.org/1999/xlink"><g><path fill='#fff' d="M254.668,351.75c0-4.139-3.35-7.5-7.499-7.5c-4.14,0-7.5,3.361-7.5,7.5c0,4.141,3.36,7.5,7.5,7.5   C251.318,359.25,254.668,355.891,254.668,351.75z"/><path  fill='#fff' d="M187.277,478.17l-0.977-0.246c-1.847-0.472-3.725,0.645-4.196,2.49c-0.471,1.846,0.645,3.725,2.491,4.195l1.02,0.258   c0.278,0.068,0.559,0.102,0.833,0.102c1.549,0,2.956-1.049,3.346-2.619C190.254,480.501,189.127,478.629,187.277,478.17z"/>
<path fill='#fff' d="M397.713,224.094c-0.16-1.898-1.824-3.31-3.726-3.151c-1.899,0.159-3.31,1.827-3.149,3.726   c5.84,69.853,7.815,151.834,5.873,243.71h-32.08c6.02-4.076,9.02-7.156,9.169-7.313c4-4.012,2.997-12.332,1.511-21.232   c-0.209-1.26-0.392-2.348-0.476-3.08c-1.619-14.015-4.038-27.652-6.583-41.555c-2.216-12.115-4.837-24.371-7.371-36.223   l-0.347-1.622c0-0.001,0-0.003,0-0.004c-0.006-0.032-0.015-0.064-0.021-0.097c-0.002-0.005-0.001-0.01-0.002-0.015   c-4.914-22.984-10.484-49.036-12.455-74.842c-2.643-34.523-0.952-71.285,5.174-112.387c6.271-42.104,13.456-66.827,17.648-78.84   c3.647,13.76,10.261,43.194,15.938,92.677c0.201,1.76,1.693,3.058,3.422,3.058c0.132,0,0.265-0.008,0.398-0.023   c1.894-0.217,3.251-1.928,3.034-3.82c-8.409-73.311-18.634-102.474-19.064-103.68c-0.007-0.019-0.019-0.035-0.026-0.054   c-0.006-0.017-0.007-0.034-0.014-0.05c-0.029-0.075-0.076-0.139-0.11-0.211c-0.062-0.13-0.122-0.261-0.198-0.38   c-0.048-0.075-0.105-0.142-0.159-0.212c-0.088-0.116-0.176-0.23-0.275-0.333c-0.065-0.067-0.138-0.125-0.208-0.187   c-0.104-0.089-0.207-0.177-0.318-0.253c-0.084-0.057-0.172-0.105-0.262-0.155c-0.112-0.063-0.226-0.122-0.345-0.172   c-0.045-0.019-0.084-0.048-0.129-0.064l-41.285-15.378c-0.001,0-0.002-0.001-0.003-0.002L307.9,53.219   c-2.16-1.041-4.512-2.008-7.164-2.953c-3.01-1.672-5.614-4.049-7.543-6.9l-7.573-11.165c-0.011-0.018-0.022-0.034-0.034-0.051   l-0.013-0.018c-0.005-0.008-0.007-0.016-0.013-0.024c-1.957-2.913-4.885-5.114-8.236-6.197   c-13.769-4.471-28.908-4.469-42.666-0.001c-3.349,1.082-6.277,3.28-8.246,6.189c-0.023,0.036-0.048,0.073-0.072,0.111   l-7.522,11.109l-0.523,0.742c-0.001,0.001-0.001,0.001-0.002,0.002c-0.672,0.913-1.406,1.763-2.242,2.6   c-1.425,1.413-3.035,2.614-4.786,3.582c-2.561,0.904-5.008,1.911-7.282,3l-64.567,24.064c-0.041,0.016-0.076,0.042-0.117,0.059   c-0.127,0.053-0.248,0.116-0.368,0.184c-0.082,0.047-0.164,0.091-0.242,0.145c-0.119,0.081-0.229,0.173-0.338,0.269   c-0.063,0.056-0.129,0.108-0.188,0.168c-0.109,0.112-0.206,0.237-0.301,0.365c-0.044,0.06-0.093,0.115-0.133,0.177   c-0.089,0.137-0.159,0.286-0.229,0.437c-0.025,0.056-0.063,0.105-0.085,0.163c-0.005,0.012-0.006,0.025-0.011,0.038   c-0.01,0.023-0.023,0.043-0.032,0.067c-0.364,1.019-9.021,25.663-16.97,86.547c-13.241,101.411-13.812,222.366-11.959,305.977   c0.042,1.875,1.574,3.373,3.449,3.373h47.355c1.555,0.774,3.141,1.528,4.739,2.236c0.455,0.201,0.929,0.297,1.396,0.297   c1.323,0,2.586-0.766,3.156-2.053c0.772-1.742-0.014-3.779-1.756-4.553c-1.748-0.774-3.488-1.6-5.172-2.454   c-0.048-0.024-0.098-0.048-0.146-0.071c-12.301-6.262-18.3-12.384-18.4-12.488c-1.213-1.215-1.074-6.337,0.409-15.223   c0.226-1.352,0.421-2.52,0.525-3.426c1.595-13.805,3.993-27.32,6.517-41.105c2.021-11.069,4.395-22.279,6.732-33.207   c6.037,0.988,19.688,2.836,37.45,2.836c5.161,0,10.671-0.156,16.438-0.535c1.522-0.1,2.797-1.186,3.138-2.672l6.129-26.75   c0.245-1.065-0.03-2.184-0.741-3.014c-0.71-0.829-1.763-1.277-2.863-1.198c-0.342,0.024-33.513,2.259-52.188-4.501   c2.748-14.631,5.043-29.482,6.189-44.475c2.686-35.042,0.975-72.31-5.228-113.93c-7.755-52.066-16.771-77.773-20.327-86.492   l33.824-12.606c16.619,118.233,68.688,198.054,73.727,205.552c2.11,9.398,25.172,116.219,0.495,183.832   c-0.447,0.566-0.725,1.264-0.749,2.013c-2.905,7.593-6.376,14.458-10.328,20.452c-12.235,1.092-24.085,1.056-35.236-0.135   c-1.898-0.204-3.595,1.17-3.797,3.064s1.17,3.595,3.064,3.797c6.059,0.646,12.308,0.97,18.702,0.97   c6.388,0,12.922-0.322,19.556-0.968c0.1-0.01,0.192-0.039,0.289-0.058c0.094-0.017,0.186-0.03,0.276-0.056   c0.191-0.051,0.372-0.121,0.548-0.203c0.053-0.024,0.108-0.04,0.16-0.067c0.227-0.119,0.436-0.263,0.628-0.427   c0.047-0.041,0.086-0.089,0.131-0.131c0.147-0.141,0.282-0.291,0.402-0.455c0.023-0.03,0.054-0.053,0.075-0.084   c3.008-4.379,5.758-9.207,8.226-14.424c4.27,12.375,10.403,15.309,11.232,15.654c0.317,0.133,0.653,0.217,0.995,0.25   c6.854,0.666,13.347,0.967,19.494,0.967c30.214,0,51.947-7.27,65.77-14.16h47.358c1.876,0,3.407-1.498,3.448-3.373   C405.604,378.419,403.646,295.043,397.713,224.094z M212.657,339.02l-4.534,19.783c-23.362,1.281-41.874-1.104-49.331-2.307   l5.438-21.938C180.121,339.619,202.934,339.395,212.657,339.02z M158.747,170.011c6.125,41.103,7.817,77.865,5.172,112.387   c-1.964,25.703-7.409,51.207-12.675,75.873l-0.047,0.207c-0.006,0.025-0.004,0.051-0.009,0.076   c-0.004,0.021-0.008,0.041-0.011,0.061l-0.024,0.114c-2.558,11.931-5.2,24.268-7.428,36.47c-2.545,13.901-4.964,27.54-6.583,41.555   c-0.084,0.732-0.267,1.82-0.477,3.08c-1.486,8.9-2.49,17.221,1.463,21.184c0.183,0.189,3.193,3.281,9.219,7.361h-32.081   c-3.148-148.8,4.721-245.781,11.909-301.053c5.152-39.612,10.694-64.004,13.92-76.161   C145.289,103.178,152.475,127.901,158.747,170.011z M352.948,355.414c-7.29,1.492-25.868,4.611-49.095,3.386l-4.533-19.78   c9.725,0.377,32.543,0.6,48.433-4.462L352.948,355.414z M291.556,79.073c-0.038-1-0.087-1.981-0.134-2.954l-0.008-0.154v0   c-0.08-1.651-0.172-3.251-0.263-4.819l-0.159-2.428c-0.004-0.049-0.007-0.1-0.013-0.149c-0.014-0.128-0.02-0.25-0.031-0.461   l-0.037-0.479c-0.046-0.591-0.093-1.171-0.13-1.745c-0.001-0.003-0.002-0.006-0.002-0.009c-0.002-0.03-0.004-0.056-0.007-0.086   c-0.053-0.561-0.097-1.114-0.142-1.667l-0.015-0.159c-0.001-0.008,0.001-0.016,0.001-0.023l-0.16-1.839   c-0.006-0.07-0.027-0.134-0.037-0.203l-0.18-1.889c-0.003-0.053,0.006-0.104,0-0.158l-0.144-1.363l-0.001-0.008   c-0.033-0.382-0.067-0.754-0.112-1.121l-0.084-0.734c0-0.001-0.001-0.002-0.001-0.002c-0.266-2.459-0.57-4.939-0.909-7.374   c2.382,2.93,5.33,5.398,8.654,7.2c0.011,0.006,0.023,0.008,0.035,0.014c0.27,0.153,0.552,0.296,0.881,0.461   c0.021,0.01,0.042,0.019,0.063,0.029c0.006,0.003,0.013,0.007,0.02,0.01c0.002,0.001,0.006,0.002,0.009,0.003   c0.532,0.259,1.063,0.511,1.616,0.741c0.019,0.008,0.037,0.017,0.056,0.024v0c0.247,0.109,0.5,0.207,0.753,0.304l4.088,1.524   c0.057,0.025,0.116,0.049,0.176,0.071l20.929,7.8c-11.378,82.72-40.112,146.146-58.01,179.224   C289.842,172.93,293.035,115.626,291.556,79.073z M185.698,67.424l20.813-7.757c0,0,0,0,0.001,0l4.146-1.544   c0.482-0.186,0.964-0.383,1.461-0.598l0.472-0.206c0.117-0.05,0.155-0.065,0.266-0.129c0.004-0.001,0.013-0.006,0.025-0.011   c0.034-0.016,0.067-0.033,0.102-0.049c0.165-0.076,0.338-0.159,0.558-0.271c0.003-0.001,0.006-0.004,0.009-0.005l0.052-0.026   c0.022-0.011,0.046-0.023,0.069-0.035c0.003-0.002,0.007-0.002,0.011-0.004c0.017-0.008,0.031-0.018,0.048-0.025   c0.021-0.012,0.045-0.022,0.066-0.034l0.59-0.32c0.001,0,0.002-0.001,0.003-0.002c0.015-0.008,0.027-0.014,0.042-0.022   c2.381-1.294,4.563-2.92,6.484-4.829c0.003-0.003,0.006-0.007,0.01-0.01c0.001-0.001,0.002-0.002,0.004-0.003   c0.098-0.098,0.185-0.203,0.28-0.302c0.448-0.458,0.892-0.93,1.321-1.434c0.163-0.191,0.309-0.39,0.466-0.583   c-4.107,29.636-8.108,98.833,20.658,197.24C225.75,213.26,197.022,149.731,185.698,67.424z M232.436,35.579   c1.099-1.44,2.613-2.543,4.349-3.104c12.39-4.024,26.014-4.026,38.414,0.001c1.732,0.56,3.237,1.662,4.327,3.096   c0.115,0.488,0.282,1.208,0.494,2.195l0.004,0.02c0,0.001,0,0.003,0.001,0.005l0.011,0.053l0.152,0.739   c0.01,0.051,0.019,0.103,0.029,0.153c0.06,0.272,0.119,0.571,0.18,0.876c0.007,0.035,0.013,0.064,0.02,0.101   c0.254,1.26,0.527,2.763,0.823,4.526c0.126,0.734,0.254,1.517,0.381,2.332c0.177,1.12,0.354,2.32,0.531,3.598   c0.333,2.401,0.636,4.849,0.906,7.355l0.075,0.666c0,0.002,0.001,0.004,0.001,0.006c0.035,0.288,0.062,0.576,0.095,0.946   l0.525,5.531c0.047,0.585,0.094,1.171,0.143,1.67c0.039,0.599,0.086,1.205,0.135,1.822l0.037,0.474c0,0,0,0.001,0,0.002   c0.012,0.196,0.022,0.386,0.041,0.583l0.154,2.329c0.09,1.541,0.18,3.12,0.26,4.75l0.006,0.154   c0.048,0.947,0.094,1.904,0.131,2.886c1.579,38.998-2.266,101.998-28.676,183.691C212.335,128.016,230.319,44.377,232.436,35.579z    M350.404,468.738c-0.013,0.006-0.026,0.008-0.039,0.016c-15.619,7.931-42.4,16.58-81.496,12.922   c-1.401-0.968-6.562-5.436-9.245-19.646c11.169-30.303,14.55-71.163,10.025-121.505c-2.961-32.938-8.541-59.445-9.958-65.852   c7.326-11.035,56.977-89.26,73.207-204.774l33.834,12.604c-3.556,8.718-12.571,34.425-20.326,86.491   c-6.203,41.62-7.913,78.887-5.229,113.93c1.146,15.013,3.475,30.031,6.185,44.477c-18.661,6.75-51.841,4.521-52.183,4.499   c-1.075-0.075-2.15,0.368-2.862,1.198s-0.986,1.948-0.741,3.014l6.129,26.75c0.34,1.486,1.615,2.572,3.137,2.672   c4.84,0.318,9.48,0.454,13.888,0.454c18.919,0,33.408-2.505,39.773-3.836c2.407,11.265,4.87,22.858,6.961,34.29   c2.523,13.783,4.921,27.299,6.517,41.104c0.104,0.906,0.3,2.073,0.525,3.426c1.483,8.885,1.621,14.007,0.366,15.266   C368.813,456.298,362.779,462.457,350.404,468.738z"/><path fill='#fff' d="M392.027,199.93c-1.896,0.185-3.282,1.873-3.097,3.769l0.097,1.001c0.174,1.783,1.674,3.117,3.43,3.117   c0.112,0,0.225-0.005,0.338-0.017c1.896-0.184,3.285-1.871,3.101-3.767l-0.099-1.004C395.61,201.131,393.92,199.736,392.027,199.93   z"/></g></svg>