<svg xmlns="http://www.w3.org/2000/svg" width="30" height="30" viewBox="0 0 30 30">
  <path id="Pinterest" d="M30,15.563A15,15,0,0,1,10.56,29.891a16.861,16.861,0,0,0,1.863-3.931c.181-.7.931-3.569.931-3.569a4.017,4.017,0,0,0,3.435,1.724c4.524,0,7.784-4.161,7.784-9.333,0-4.954-4.046-8.661-9.248-8.661-6.472,0-9.913,4.343-9.913,9.079,0,2.2,1.173,4.942,3.042,5.812.284.133.435.073.5-.2.048-.206.3-1.228.417-1.7a.449.449,0,0,0-.1-.429A5.907,5.907,0,0,1,8.165,15.26,6.491,6.491,0,0,1,14.94,8.752a5.922,5.922,0,0,1,6.266,6.1c0,4.058-2.05,6.871-4.718,6.871a2.176,2.176,0,0,1-2.22-2.71c.423-1.784,1.24-3.708,1.24-5a1.884,1.884,0,0,0-1.9-2.111c-1.506,0-2.716,1.554-2.716,3.641a5.4,5.4,0,0,0,.448,2.226s-1.482,6.278-1.754,7.452a14.52,14.52,0,0,0-.054,4.306A15,15,0,1,1,30,15.563Z" transform="translate(0 -0.563)"/>
</svg>
