<svg id="american-express" xmlns="http://www.w3.org/2000/svg" width="80" height="50" viewBox="0 0 80 50">
  <path id="Rectangle-1" d="M74.522,0H4.974A4.288,4.288,0,0,0,1,4V44q0,6,5.961,6H74.522q5.961,0,5.961-6V6Q80.483,0,74.522,0Zm0,0" transform="translate(-0.503 0)" fill-rule="evenodd"/>
  <path id="Shape" d="M7.213,29.363,5.674,25.588,4.143,29.363Zm33.912-1.5a2.073,2.073,0,0,1-1.113.2H37.281v-2.1H40.05a2.293,2.293,0,0,1,1.067.171.868.868,0,0,1,.472.837.97.97,0,0,1-.463.9Zm19.492,1.5-1.556-3.775-1.548,3.775ZM24.284,33.45H21.978l-.008-7.417L18.708,33.45H16.733l-3.27-7.424V33.45H8.889l-.864-2.112H3.342L2.469,33.45H.026l4.028-9.471H7.4l3.825,8.967V23.979h3.671L17.835,30.4l2.7-6.425h3.745V33.45h0Zm9.19,0H25.96V23.979h7.513v1.972H28.209v1.707h5.138V29.6H28.209v1.891h5.264V33.45Zm10.593-6.92a2.666,2.666,0,0,1-1.585,2.524,2.609,2.609,0,0,1,1.113.8,2.738,2.738,0,0,1,.372,1.738v1.86H41.7l-.009-1.194a2.857,2.857,0,0,0-.355-1.845c-.329-.333-.83-.405-1.639-.405H37.281V33.45H35.032V23.979h5.173a5.267,5.267,0,0,1,2.723.454,2.212,2.212,0,0,1,1.138,2.1Zm3.6,6.92H45.371V23.979h2.295V33.45Zm26.624,0H71.1l-4.263-7.108V33.45h-4.58l-.875-2.112H56.711l-.849,2.112H53.23A4.707,4.707,0,0,1,49.969,32.4a4.785,4.785,0,0,1-1.2-3.616,5.061,5.061,0,0,1,1.213-3.7,4.547,4.547,0,0,1,3.416-1.1h2.177v2.029H53.442a2.156,2.156,0,0,0-1.731.561,3.14,3.14,0,0,0-.647,2.145,3.3,3.3,0,0,0,.618,2.224,2.16,2.16,0,0,0,1.567.488h1.01l3.17-7.448H60.8l3.808,8.958V23.98h3.424l3.953,6.6v-6.6h2.3v9.47ZM0,35.31H3.843l.866-2.1h1.94l.864,2.1h7.561V33.7l.675,1.615h3.925l.675-1.639V35.31H39.14l-.009-3.453h.364c.255.009.329.033.329.456v3h9.718v-.8a7.66,7.66,0,0,0,3.607.8h4.089l.875-2.1h1.94l.855,2.1h7.879v-2l1.193,2h6.314V22.1H70.046v1.56l-.875-1.56H62.76v1.56l-.8-1.56H53.3a7.736,7.736,0,0,0-3.753.771V22.1H43.566v.771a3.688,3.688,0,0,0-2.54-.771H19.191l-1.465,3.412-1.5-3.412H9.344v1.56L8.589,22.1H2.724L0,28.382V35.31Zm80,6.974H75.9a1.548,1.548,0,0,0-.91.171.739.739,0,0,0-.329.682.715.715,0,0,0,.492.706,2.55,2.55,0,0,0,.867.107l1.219.033a3.54,3.54,0,0,1,2.552.762A1.236,1.236,0,0,1,80,44.98Zm0,6.245a3.494,3.494,0,0,1-3.052,1.212H72.6V47.71H76.93a1.272,1.272,0,0,0,.91-.235.834.834,0,0,0,.266-.618.78.78,0,0,0-.275-.626,1.138,1.138,0,0,0-.792-.21c-2.112-.072-4.747.066-4.747-2.932,0-1.374.867-2.82,3.227-2.82H80V38.384H75.837a4.668,4.668,0,0,0-2.815.774v-.774H66.865a4.243,4.243,0,0,0-2.687.774v-.774H53.185v.774a5.822,5.822,0,0,0-3.033-.774H42.9v.774c-.692-.675-2.232-.774-3.17-.774H31.614l-1.857,2.023-1.739-2.023H15.893V51.6h11.9L29.7,49.547l1.8,2.055,7.332.007V48.5h.721a7.594,7.594,0,0,0,3.133-.465V51.6H48.74V48.156h.292c.372,0,.409.015.409.39V51.6H67.813a5.213,5.213,0,0,0,3.061-.846V51.6H76.7a7.764,7.764,0,0,0,3.3-.609V48.529Zm-8.972-3.784a2.648,2.648,0,0,1,.673,2.007c0,2.038-1.265,2.989-3.533,2.989H63.787V47.71H68.15a1.317,1.317,0,0,0,.919-.235.843.843,0,0,0,.265-.618.815.815,0,0,0-.274-.626,1.177,1.177,0,0,0-.8-.21c-2.1-.072-4.738.066-4.738-2.932,0-1.374.858-2.82,3.216-2.82h4.509v2.016H67.121a1.512,1.512,0,0,0-.9.171.8.8,0,0,0,.154,1.387,2.571,2.571,0,0,0,.875.107l1.211.033a3.613,3.613,0,0,1,2.568.762ZM50.734,44.16a2.141,2.141,0,0,1-1.111.2H46.891V42.228H49.66a2.2,2.2,0,0,1,1.074.171.9.9,0,0,1,.465.852,1.024,1.024,0,0,1-.465.909Zm1.358,1.179a2.445,2.445,0,0,1,1.1.8,2.773,2.773,0,0,1,.373,1.729v1.878H51.308V48.556c0-.57.054-1.414-.364-1.854-.329-.339-.83-.42-1.65-.42h-2.4v3.46h-2.26V40.268h5.193a5.537,5.537,0,0,1,2.706.447,2.222,2.222,0,0,1,1.156,2.1,2.653,2.653,0,0,1-1.594,2.52Zm2.841-5.071H62.44v1.959H57.173V43.95h5.138v1.933H57.173v1.885l5.267.009v1.966H54.933V40.268ZM39.759,44.64H36.852V42.228h2.933c.812,0,1.376.333,1.376,1.161s-.538,1.251-1.4,1.251Zm-5.147,4.24-3.453-3.859,3.453-3.736V48.88Zm-8.918-1.113h-5.53V45.882H25.1V43.95H20.165V42.227H25.8l2.46,2.761-2.569,2.779Zm17.881-4.378c0,2.631-1.951,3.175-3.917,3.175H36.852v3.177H32.481l-2.769-3.136-2.878,3.136H17.924V40.268H26.97l2.767,3.105L32.6,40.268h7.187c1.785,0,3.79.5,3.79,3.121Zm0,0" transform="translate(0 -11.051)" fill="#fff" fill-rule="evenodd"/>
</svg>
