<svg xmlns="http://www.w3.org/2000/svg" width="80" height="50" viewBox="0 0 80 50">
  <g id="Mastercard" transform="translate(-17.805 -52.804)">
    <path id="Path_95" data-name="Path 95" d="M84.874,94.914a1.579,1.579,0,1,1-1.556-1.306A1.409,1.409,0,0,1,84.874,94.914ZM41.708,93.608c-.986,0-1.555.58-1.555,1.306s.569,1.306,1.555,1.306a1.359,1.359,0,0,0,1.514-1.306A1.386,1.386,0,0,0,41.708,93.608Zm16.319-.033a1.211,1.211,0,0,0-1.319.971h2.653A1.208,1.208,0,0,0,58.027,93.575ZM73,93.608a1.32,1.32,0,1,0,0,2.611,1.374,1.374,0,0,0,1.555-1.306A1.393,1.393,0,0,0,73,93.608Zm14.708,2.913c0,.033.042.056.042.123,0,.033-.042.055-.042.123-.042.033-.042.056-.069.089a.2.2,0,0,1-.153.055c-.042.034-.069.034-.153.034a.327.327,0,0,1-.153-.034c-.042,0-.07-.033-.111-.055S87,96.8,87,96.767a.174.174,0,0,1-.041-.123c0-.056,0-.089.041-.123,0-.056.042-.089.069-.123a.539.539,0,0,1,.111-.056.3.3,0,0,1,.153-.033.217.217,0,0,1,.153.033c.07.033.111.033.153.056S87.666,96.465,87.708,96.521Zm-.305.156c.069,0,.069-.033.111-.033a.117.117,0,0,0,0-.179c-.042,0-.07-.033-.153-.033h-.222v.391h.111v-.157h.042l.153.157h.111l-.153-.145Zm10.4-38.516V97.447c0,2.958-2.986,5.357-6.667,5.357H24.472c-3.681,0-6.667-2.4-6.667-5.357V58.162c0-2.958,2.986-5.357,6.667-5.357H91.138C94.819,52.8,97.805,55.2,97.805,58.162ZM26.694,73.742c0,8.538,8.625,15.457,19.236,15.457a22.883,22.883,0,0,0,10.625-2.578C46.43,80,46.5,67.514,56.555,60.9A22.744,22.744,0,0,0,45.93,58.318C35.319,58.307,26.694,65.238,26.694,73.742ZM57.805,85.885c9.792-6.138,9.75-18.1,0-24.274C48.055,67.782,48.013,79.758,57.805,85.885ZM38.041,94.4c0-.971-.791-1.607-2.041-1.641a2.177,2.177,0,0,0-1.778.725,1.981,1.981,0,0,0-1.694-.725,1.936,1.936,0,0,0-1.472.6v-.491H29.916v4.1h1.139c0-2.109-.347-3.37,1.25-3.37,1.417,0,1.139,1.138,1.139,3.37h1.1c0-2.042-.347-3.37,1.25-3.37,1.417,0,1.139,1.116,1.139,3.37h1.139V94.4h-.028Zm6.236-1.529h-1.1v.491a2.221,2.221,0,0,0-1.625-.6,2.182,2.182,0,1,0,0,4.308,2.135,2.135,0,0,0,1.625-.6v.513h1.1ZM49.9,95.728c0-1.674-3.18-.915-3.18-1.7,0-.636,1.653-.536,2.569-.123l.458-.725c-1.306-.681-4.194-.67-4.194.915s3.181.926,3.181,1.674c0,.7-1.875.647-2.875.089l-.486.7c1.555.848,4.528.67,4.528-.837Zm4.917,1.038-.306-.759c-.527.234-1.694.491-1.694-.458V93.7h1.819v-.826H52.819v-1.25H51.68v1.25H50.625v.815H51.68V95.55c0,1.964,2.4,1.607,3.139,1.217Zm1.847-1.5h3.819a2.221,2.221,0,0,0-2.417-2.523A2.267,2.267,0,0,0,55.541,94.9c0,2.288,3.139,2.668,4.694,1.585l-.528-.67C58.625,96.532,56.986,96.465,56.666,95.271Zm8.208-2.4a1.869,1.869,0,0,0-2.111.491v-.491H61.624v4.1h1.139v-2.31c0-1.295,1.319-1.127,1.778-.937l.333-.848Zm1.472,2.042c0-1.272,1.611-1.686,2.875-.937l.527-.725c-1.611-1.016-4.541-.458-4.541,1.674,0,2.21,3.111,2.656,4.541,1.674l-.527-.725C67.944,96.6,66.347,96.164,66.347,94.914Zm9.264-2.042H74.472v.491c-1.153-1.228-4.153-.536-4.153,1.551,0,2.143,3.111,2.757,4.153,1.551v.513h1.139Zm4.681,0a1.931,1.931,0,0,0-2.111.491v-.491h-1.1v4.1h1.1v-2.31c0-1.228,1.25-1.15,1.778-.937l.333-.848Zm5.6-1.663h-1.1v2.154c-1.139-1.216-4.153-.569-4.153,1.551,0,2.165,3.125,2.746,4.153,1.551v.513h1.1v-5.77Zm1.055-8.382v.513h.111v-.513h.264v-.089H86.68v.089Zm.917,13.817a.284.284,0,0,0-.042-.179c-.042-.033-.07-.089-.111-.123s-.111-.055-.153-.089c-.069,0-.153-.034-.222-.034a1.784,1.784,0,0,1-.194.034.732.732,0,0,0-.153.089.18.18,0,0,0-.111.123.283.283,0,0,0-.042.179.269.269,0,0,0,.042.156.18.18,0,0,0,.111.123.489.489,0,0,0,.153.089.457.457,0,0,0,.194.033.516.516,0,0,0,.222-.033c.041-.033.111-.056.153-.089s.069-.089.111-.123A.271.271,0,0,0,87.861,96.644Zm.445-13.917h-.194l-.223.391-.222-.391h-.194v.6h.111v-.458l.222.391h.153l.195-.391v.458h.153v-.6Zm.611-8.984c0-8.5-8.625-15.435-19.236-15.435a22.878,22.878,0,0,0-10.625,2.578c10.014,6.618,10.167,19.141,0,25.725A22.829,22.829,0,0,0,69.68,89.188C80.291,89.2,88.916,82.28,88.916,73.742Z"/>
  </g>
</svg>
