<svg xmlns="http://www.w3.org/2000/svg" width="80" height="50" viewBox="0 0 80 50">
  <g id="Paypal" transform="translate(-0.853 -1.789)">
    <path id="Path_96" data-name="Path 96" d="M7.162,1.789H74.545A6.28,6.28,0,0,1,80.853,8V45.575a6.28,6.28,0,0,1-6.308,6.215H7.162A6.28,6.28,0,0,1,.853,45.575V8A6.28,6.28,0,0,1,7.162,1.789Zm3.907,17.343h6.177a4.27,4.27,0,0,1,3.024.945,3.529,3.529,0,0,1,1,2.7,3.628,3.628,0,0,1-1.1,2.806,4.791,4.791,0,0,1-3.346,1.012H14.795v4.382H11.069V19.133Zm3.726,5.06h.915a2.392,2.392,0,0,0,1.519-.369,1.178,1.178,0,0,0,.436-.943,1.3,1.3,0,0,0-.381-.945,1.989,1.989,0,0,0-1.427-.389H14.795v2.646Zm10.961.976-3.189-.331a3.493,3.493,0,0,1,.52-1.3,2.821,2.821,0,0,1,.979-.821,4.066,4.066,0,0,1,1.259-.389,10.36,10.36,0,0,1,1.737-.138,13.992,13.992,0,0,1,2.406.165,3.111,3.111,0,0,1,1.514.692,2.4,2.4,0,0,1,.671,1.031,3.646,3.646,0,0,1,.246,1.273v3.792a4.429,4.429,0,0,0,.078.951,4.2,4.2,0,0,0,.339.876H29.192a3.191,3.191,0,0,1-.246-.5,4.091,4.091,0,0,1-.115-.54,4.273,4.273,0,0,1-1.3.885,5.491,5.491,0,0,1-2.056.356,3.46,3.46,0,0,1-2.364-.714A2.246,2.246,0,0,1,22.3,28.7a2.284,2.284,0,0,1,.582-1.612,3.953,3.953,0,0,1,2.149-.94q1.876-.372,2.434-.524a10.965,10.965,0,0,0,1.181-.391,1.142,1.142,0,0,0-.255-.849,1.271,1.271,0,0,0-.89-.243,2.325,2.325,0,0,0-1.228.259,1.44,1.44,0,0,0-.515.766Zm2.887,1.72q-.688.244-1.438.433a3.323,3.323,0,0,0-1.287.529.848.848,0,0,0-.006,1.254,1.173,1.173,0,0,0,.808.248,2.105,2.105,0,0,0,1.041-.27,1.63,1.63,0,0,0,.68-.656,2.191,2.191,0,0,0,.2-1.009v-.529Zm4.3-4.5H36.46L38.253,28.1l1.656-5.713H43.2L39.75,31.566a5.493,5.493,0,0,1-1.2,2.108,3.885,3.885,0,0,1-2.647.772,19.894,19.894,0,0,1-2.227-.193l-.263-2.3a5.417,5.417,0,0,0,1.606.223,1.593,1.593,0,0,0,.957-.265,1.982,1.982,0,0,0,.618-.94L32.94,22.39Zm11.411-3.258h6.177a4.27,4.27,0,0,1,3.024.945,3.529,3.529,0,0,1,1,2.7,3.628,3.628,0,0,1-1.1,2.806,4.791,4.791,0,0,1-3.346,1.012H48.078v4.382H44.352V19.133Zm3.726,5.06h.915a2.392,2.392,0,0,0,1.519-.369,1.178,1.178,0,0,0,.436-.943,1.3,1.3,0,0,0-.38-.945,1.989,1.989,0,0,0-1.427-.389H48.078v2.646Zm10.961.976-3.189-.331a3.491,3.491,0,0,1,.52-1.3,2.821,2.821,0,0,1,.979-.821,4.065,4.065,0,0,1,1.259-.389,10.36,10.36,0,0,1,1.737-.138,13.993,13.993,0,0,1,2.406.165,3.111,3.111,0,0,1,1.514.692,2.4,2.4,0,0,1,.671,1.031,3.646,3.646,0,0,1,.246,1.273v3.792a4.429,4.429,0,0,0,.078.951,4.2,4.2,0,0,0,.339.876H62.475a3.187,3.187,0,0,1-.246-.5,4.091,4.091,0,0,1-.115-.54,4.273,4.273,0,0,1-1.3.885,5.491,5.491,0,0,1-2.056.356,3.46,3.46,0,0,1-2.364-.714,2.246,2.246,0,0,1-.809-1.756,2.285,2.285,0,0,1,.582-1.612,3.954,3.954,0,0,1,2.149-.94q1.876-.372,2.434-.524a10.969,10.969,0,0,0,1.181-.391,1.142,1.142,0,0,0-.255-.849,1.271,1.271,0,0,0-.89-.243,2.325,2.325,0,0,0-1.228.259,1.44,1.44,0,0,0-.515.766Zm2.887,1.72q-.688.244-1.438.433a3.323,3.323,0,0,0-1.287.529A.848.848,0,0,0,59.2,29.1a1.173,1.173,0,0,0,.808.248,2.105,2.105,0,0,0,1.041-.27,1.63,1.63,0,0,0,.68-.656,2.191,2.191,0,0,0,.2-1.009v-.529ZM67.3,19.133h3.34v11.84H67.3Z" transform="translate(0 0)" fill-rule="evenodd"/>
  </g>
</svg>
