<svg xmlns="http://www.w3.org/2000/svg" width="80" height="50" viewBox="0 0 80 50">
  <g id="VISA" transform="translate(-30.009 -182.864)">
    <g id="Icons" transform="translate(21.15 168.807)">
      <g id="Group_137" data-name="Group 137" transform="translate(8.859 14.057)">
        <path id="Path_93" data-name="Path 93" d="M32.575,22.416l-.953,2.63h1.529L32.6,22.419Z" transform="translate(30.502 0.53)" fill="#303030"/>
        <path id="Path_94" data-name="Path 94" d="M82.5,14.057H15.216a6.217,6.217,0,0,0-6.357,6.051v37.9a6.217,6.217,0,0,0,6.357,6.051H82.5a6.217,6.217,0,0,0,6.358-6.051v-37.9A6.218,6.218,0,0,0,82.5,14.057ZM56,41.652a10.3,10.3,0,0,0-1.645-.957,14.646,14.646,0,0,1-2.712-1.606,4.385,4.385,0,0,1-.779-6.28A7.129,7.129,0,0,1,55.2,30.164c.558-.134,1.138-.184,1.706-.275.084-.014.166-.041.25-.063h1.87c.545.085,1.093.152,1.632.263s1.053.259,1.577.4c.127.033.247.088.4.143-.281,1.248-.559,2.485-.837,3.721-.639-.192-1.249-.41-1.879-.555a7.187,7.187,0,0,0-3.431-.082,3.055,3.055,0,0,0-1.151.6.988.988,0,0,0-.02,1.593,6.809,6.809,0,0,0,1.209.834c.851.479,1.745.89,2.584,1.385a4.939,4.939,0,0,1,2.445,2.786,5.283,5.283,0,0,1-2.207,5.78,9.128,9.128,0,0,1-4.138,1.48,15.816,15.816,0,0,1-6.9-.666c-.125-.041-.245-.094-.4-.156.291-1.3.578-2.582.874-3.9.19.078.353.141.511.213a10.268,10.268,0,0,0,4.391.911,4.554,4.554,0,0,0,2.031-.431A1.365,1.365,0,0,0,56,41.652Zm-7.817-9.76q-1.762,7.846-3.517,15.694c-.075.335-.2.433-.559.427C42.782,47.989,41.458,48,40.133,48h-.425c1.345-5.979,2.679-11.909,4.012-17.835H48.56C48.431,30.758,48.308,31.325,48.182,31.892Zm-6.82-1.115q-3.728,8.468-7.453,16.938a.423.423,0,0,1-.461.3c-1.5-.012-3-.01-4.507,0-.226,0-.322-.052-.383-.276-1.254-4.649-2.531-9.293-3.774-13.944a2.446,2.446,0,0,0-1.5-1.766,24.575,24.575,0,0,0-4.273-1.314c-.064-.015-.126-.039-.189-.058v-.128c.045-.351.277-.383.6-.381,2.548.013,5.1.008,7.645.008a2.219,2.219,0,0,1,2.369,1.855q.978,4.909,1.944,9.82a.863.863,0,0,0,.148.362l5-12.02h5.084C41.523,30.39,41.447,30.585,41.362,30.777ZM74.425,47.988c-.141-.635-.288-1.271-.424-1.909-.159-.749-.155-.75-.97-.75-1.7,0-3.4,0-5.107,0a.376.376,0,0,0-.43.284c-.256.721-.531,1.436-.816,2.147a.415.415,0,0,1-.279.234c-1.612.014-3.225.01-4.873.01.042-.112.068-.2.106-.285q3.557-8.086,7.117-16.173a2.213,2.213,0,0,1,2.179-1.386c1.334,0,2.669,0,4.052,0L78.9,47.988Z" transform="translate(-8.859 -14.057)"/>
      </g>
    </g>
  </g>
</svg>
